<svg width="1920" height="370" viewBox="0 0 1920 370" fill="none" xmlns="http://www.w3.org/2000/svg">
<mask id="mask0_2658_5758" style="mask-type:alpha" maskUnits="userSpaceOnUse" x="648" y="0" width="624" height="370">
<path opacity="0.2" d="M648 370H1272V0H1092H960H902.057H648V370Z" fill="url(#paint0_linear_2658_5758)"/>
</mask>
<g mask="url(#mask0_2658_5758)">
<path fill-rule="evenodd" clip-rule="evenodd" d="M959.897 39.9861C817.457 39.9861 701.986 155.457 701.986 297.897C701.986 440.337 817.457 555.807 959.897 555.807C1102.34 555.807 1217.81 440.337 1217.81 297.897C1217.81 155.457 1102.34 39.9861 959.897 39.9861ZM662 297.897C662 133.373 795.373 0 959.897 0C1124.42 0 1257.79 133.373 1257.79 297.897C1257.79 462.42 1124.42 595.793 959.897 595.793C795.373 595.793 662 462.42 662 297.897Z" fill="url(#paint1_linear_2658_5758)" fill-opacity="0.3"/>
<path fill-rule="evenodd" clip-rule="evenodd" d="M959.897 105.963C853.895 105.963 767.964 191.894 767.964 297.896C767.964 403.898 853.895 489.83 959.897 489.83C1065.9 489.83 1151.83 403.898 1151.83 297.896C1151.83 191.894 1065.9 105.963 959.897 105.963ZM727.978 297.896C727.978 169.811 831.811 65.9768 959.897 65.9768C1087.98 65.9768 1191.82 169.811 1191.82 297.896C1191.82 425.982 1087.98 529.816 959.897 529.816C831.811 529.816 727.978 425.982 727.978 297.896Z" fill="url(#paint2_linear_2658_5758)" fill-opacity="0.3"/>
<path fill-rule="evenodd" clip-rule="evenodd" d="M959.897 179.938C894.75 179.938 841.938 232.75 841.938 297.897C841.938 363.044 894.75 415.856 959.897 415.856C1025.04 415.856 1077.86 363.044 1077.86 297.897C1077.86 232.75 1025.04 179.938 959.897 179.938ZM801.952 297.897C801.952 210.666 872.666 139.952 959.897 139.952C1047.13 139.952 1117.84 210.666 1117.84 297.897C1117.84 385.128 1047.13 455.842 959.897 455.842C872.666 455.842 801.952 385.128 801.952 297.897Z" fill="url(#paint3_linear_2658_5758)" fill-opacity="0.3"/>
<path fill-rule="evenodd" clip-rule="evenodd" d="M959.897 253.912C935.605 253.912 915.912 273.605 915.912 297.897C915.912 322.189 935.605 341.881 959.897 341.881C984.189 341.881 1003.88 322.189 1003.88 297.897C1003.88 273.605 984.189 253.912 959.897 253.912ZM875.926 297.897C875.926 251.521 913.521 213.926 959.897 213.926C1006.27 213.926 1043.87 251.521 1043.87 297.897C1043.87 344.272 1006.27 381.867 959.897 381.867C913.521 381.867 875.926 344.272 875.926 297.897Z" fill="url(#paint4_linear_2658_5758)" fill-opacity="0.3"/>
</g>
<path opacity="0.2" d="M0 370H1920V0H1366.15H960H781.714H0V370Z" fill="url(#paint5_linear_2658_5758)"/>
<g filter="url(#filter0_f_2658_5758)">
<path d="M1554.52 192.898C1549.91 186.393 1552.39 182.055 1556.7 179.094C1567.21 174.465 1565.43 185.659 1584.88 188.886C1604.32 192.114 1614.42 214.861 1603.07 223.034C1591.72 231.207 1586.31 209.133 1583.9 201.25C1581.5 193.367 1560.32 201.082 1554.52 192.898Z" fill="url(#paint6_linear_2658_5758)" fill-opacity="0.7"/>
</g>
<g filter="url(#filter1_f_2658_5758)">
<path d="M433.162 125.584C453.219 121.018 461.105 131.212 463.906 144.406C464.555 174.021 439.636 158.73 412.741 201.875C385.846 245.019 321.668 246.616 313.406 211.495C305.144 176.374 363.081 185.292 384.241 187.348C405.401 189.404 407.932 131.326 433.162 125.584Z" fill="url(#paint7_linear_2658_5758)" fill-opacity="0.7"/>
</g>
<defs>
<filter id="filter0_f_2658_5758" x="1542.05" y="167.988" width="75.7803" height="66.8329" filterUnits="userSpaceOnUse" color-interpolation-filters="sRGB">
<feFlood flood-opacity="0" result="BackgroundImageFix"/>
<feBlend mode="normal" in="SourceGraphic" in2="BackgroundImageFix" result="shape"/>
<feGaussianBlur stdDeviation="5" result="effect1_foregroundBlur_2658_5758"/>
</filter>
<filter id="filter1_f_2658_5758" x="302.605" y="114.476" width="171.313" height="131.709" filterUnits="userSpaceOnUse" color-interpolation-filters="sRGB">
<feFlood flood-opacity="0" result="BackgroundImageFix"/>
<feBlend mode="normal" in="SourceGraphic" in2="BackgroundImageFix" result="shape"/>
<feGaussianBlur stdDeviation="5" result="effect1_foregroundBlur_2658_5758"/>
</filter>
<linearGradient id="paint0_linear_2658_5758" x1="648" y1="100.869" x2="1272" y2="100.869" gradientUnits="userSpaceOnUse">
<stop stop-color="#028CFC"/>
<stop offset="1" stop-color="#3CDDFF"/>
</linearGradient>
<linearGradient id="paint1_linear_2658_5758" x1="959.897" y1="0" x2="959.897" y2="595.793" gradientUnits="userSpaceOnUse">
<stop stop-color="#028CFC"/>
<stop offset="0.675" stop-opacity="0"/>
</linearGradient>
<linearGradient id="paint2_linear_2658_5758" x1="959.897" y1="65.9768" x2="959.897" y2="529.816" gradientUnits="userSpaceOnUse">
<stop stop-color="#028CFC"/>
<stop offset="0.675" stop-opacity="0"/>
</linearGradient>
<linearGradient id="paint3_linear_2658_5758" x1="959.897" y1="139.952" x2="959.897" y2="455.842" gradientUnits="userSpaceOnUse">
<stop stop-color="#028CFC"/>
<stop offset="0.675" stop-opacity="0"/>
</linearGradient>
<linearGradient id="paint4_linear_2658_5758" x1="959.897" y1="213.926" x2="959.897" y2="381.867" gradientUnits="userSpaceOnUse">
<stop stop-color="#028CFC"/>
<stop offset="0.675" stop-opacity="0"/>
</linearGradient>
<linearGradient id="paint5_linear_2658_5758" x1="-8.33447e-07" y1="100.869" x2="1920" y2="100.869" gradientUnits="userSpaceOnUse">
<stop stop-color="#028CFC"/>
<stop offset="1" stop-color="#3CDDFF"/>
</linearGradient>
<linearGradient id="paint6_linear_2658_5758" x1="1590.34" y1="187.228" x2="1577.57" y2="203.879" gradientUnits="userSpaceOnUse">
<stop stop-color="#553CFF"/>
<stop offset="1" stop-color="#3CDDFF"/>
</linearGradient>
<linearGradient id="paint7_linear_2658_5758" x1="411.3" y1="216.526" x2="384.237" y2="169.651" gradientUnits="userSpaceOnUse">
<stop stop-color="#553CFF"/>
<stop offset="1" stop-color="#3CDDFF"/>
</linearGradient>
</defs>
</svg>
