<svg width="58" height="62" viewBox="0 0 58 62" fill="none" xmlns="http://www.w3.org/2000/svg">
<rect x="0.679688" y="0.679688" width="56.5791" height="60.405" rx="8" fill="white" fill-opacity="0.1"/>
<path d="M14.5909 32.676C14.2507 32.6771 13.9172 32.5817 13.6291 32.4009C13.3409 32.22 13.11 31.9612 12.9632 31.6543C12.8164 31.3474 12.7596 31.0052 12.7995 30.6674C12.8394 30.3296 12.9744 30.01 13.1887 29.7458L30.9854 11.4099C31.1189 11.2558 31.3008 11.1517 31.5012 11.1146C31.7017 11.0775 31.9089 11.1097 32.0886 11.2059C32.2684 11.302 32.4101 11.4564 32.4906 11.6438C32.571 11.8311 32.5854 12.0402 32.5313 12.2368L29.0799 23.0586C28.9781 23.331 28.9439 23.624 28.9803 23.9125C29.0166 24.201 29.1224 24.4764 29.2885 24.715C29.4547 24.9536 29.6763 25.1484 29.9342 25.2826C30.1922 25.4168 30.4789 25.4864 30.7696 25.4854H43.3531C43.6933 25.4843 44.0268 25.5796 44.3149 25.7605C44.6031 25.9413 44.834 26.2002 44.9808 26.5071C45.1276 26.8139 45.1844 27.1562 45.1445 27.494C45.1046 27.8318 44.9696 28.1514 44.7553 28.4156L26.9586 46.7515C26.8251 46.9056 26.6432 47.0097 26.4428 47.0468C26.2423 47.0839 26.0352 47.0517 25.8554 46.9555C25.6756 46.8594 25.5339 46.7049 25.4534 46.5176C25.373 46.3303 25.3586 46.1212 25.4127 45.9246L28.8641 35.1028C28.9659 34.8304 29.0001 34.5374 28.9637 34.2489C28.9274 33.9604 28.8216 33.685 28.6555 33.4464C28.4893 33.2078 28.2677 33.013 28.0098 32.8788C27.7518 32.7446 27.4651 32.675 27.1744 32.676H14.5909Z" stroke="white" stroke-width="3.59514" stroke-linecap="round" stroke-linejoin="round"/>
</svg>
