<svg width="30" height="30" viewBox="0 0 30 30" fill="none" xmlns="http://www.w3.org/2000/svg">
<rect x="29.6447" y="0.35533" width="29.2893" height="29.2893" rx="14.6447" transform="rotate(90 29.6447 0.35533)" stroke="#333333" stroke-width="0.71066"/>
<path d="M12.1013 20.2498H9.92441V13.2396H12.1013V20.2498ZM11.0117 12.2834C10.3156 12.2834 9.75098 11.7068 9.75098 11.0107C9.75098 10.6763 9.8838 10.3557 10.1202 10.1193C10.3567 9.88282 10.6773 9.75 11.0117 9.75C11.346 9.75 11.6667 9.88282 11.9031 10.1193C12.1396 10.3557 12.2724 10.6763 12.2724 11.0107C12.2724 11.7068 11.7075 12.2834 11.0117 12.2834ZM20.2486 20.2498H18.0764V16.8373C18.0764 16.024 18.06 14.981 16.9446 14.981C15.8129 14.981 15.6394 15.8646 15.6394 16.7787V20.2498H13.4649V13.2396H15.5527V14.1959H15.5832C15.8738 13.6451 16.5837 13.0638 17.6429 13.0638C19.846 13.0638 20.251 14.5146 20.251 16.399V20.2498H20.2486Z" fill="white"/>
</svg>
