<?xml version="1.0" encoding="UTF-8"?>
<svg id="uuid-5826833b-b5b9-484e-b31c-9e25d9e2fdda" data-name="Layer 2" xmlns="http://www.w3.org/2000/svg" xmlns:xlink="http://www.w3.org/1999/xlink" viewBox="0 0 930 252.38">
  <defs>
    <linearGradient id="uuid-9b0dab93-18ff-429f-aace-7fe889de3925" x1="27.42" y1="189.75" x2="290.05" y2="46.65" gradientUnits="userSpaceOnUse">
      <stop offset="0" stop-color="#00c2ff"/>
      <stop offset="1" stop-color="#3c4bff"/>
    </linearGradient>
    <linearGradient id="uuid-c9438b0b-77d1-4b9f-97b7-5887db1f845e" x1="192.6" y1="141.87" x2="220.57" y2="125.64" xlink:href="#uuid-9b0dab93-18ff-429f-aace-7fe889de3925"/>
    <linearGradient id="uuid-beb6a393-ec46-4b31-abd7-ff1acb9bf153" x1="81.51" y1="141.47" x2="110.35" y2="126.62" xlink:href="#uuid-9b0dab93-18ff-429f-aace-7fe889de3925"/>
    <linearGradient id="uuid-fd3a4cdd-77e4-4876-a772-7f6de636edc1" x1="136.99" y1="141.67" x2="165.45" y2="125.77" xlink:href="#uuid-9b0dab93-18ff-429f-aace-7fe889de3925"/>
  </defs>
  <g id="uuid-cca1f7a2-df4d-45d7-ba5d-b32cf49a38d5" data-name="Layer 1">
    <g>
      <g>
        <path d="M640.61,136.88c5.92-6.57,11.84-13.14,17.78-19.7,4.43-4.89,8.84-9.79,13.33-14.63,4.26-4.58,9.52-6.48,15.79-5.93,9.09.79,13.63,9.55,8.35,17-3.36,4.74-7.53,8.91-11.4,13.29-4.87,5.5-9.8,10.95-14.78,16.51,9.06,10.42,18.02,20.74,26.99,31.04,3.11,3.57,5.27,7.41,3.56,12.34-1.42,4.08-4.33,6.53-8.54,7.36-8.16,1.62-14.69-1.06-20.14-7.29-9.44-10.78-19.08-21.38-28.65-32.05-.75-.83-1.53-1.63-2.81-2.99-.08,1.51-.17,2.45-.18,3.38-.06,8.77.08,17.54-.2,26.3-.27,8.48-5.16,12.9-13.8,13.06-8.87.16-14.15-4.3-14.98-12.69-.1-1.03-.1-2.07-.1-3.11,0-36.01-.02-72.03.04-108.04,0-2.42.26-4.94.98-7.23,1.79-5.64,6.95-8.62,13.88-8.43,8.92.25,13.62,4.65,14.01,13.57.27,6.21.16,12.44.16,18.66.02,15.46,0,30.92,0,46.38v3.02c.24.06.47.13.71.19Z" fill="#000" stroke-width="0"/>
        <path d="M397.15,81.51c0,1.42,0,2.53,0,3.64,0,30.55,0,61.09-.02,91.64,0,2.26.03,4.56-.42,6.76-1.68,8.33-8.51,12.37-17.88,10.77-6.67-1.14-10.86-5.73-11.34-12.51-.13-1.88-.21-3.77-.21-5.65-.01-30.26,0-60.53,0-90.79,0-1.2,0-2.41,0-3.85-1.35,0-2.37,0-3.38,0-10.28,0-20.55.06-30.83-.02-10.29-.07-15.99-10.27-10.85-19.27,1.95-3.42,5.14-4.84,8.83-5.35,1.39-.19,2.82-.15,4.24-.15,31.3,0,62.6,0,93.91,0,.75,0,1.51,0,2.26.02,10.51.32,16.04,10.62,10.52,19.63-2.3,3.75-5.93,5.1-10.1,5.12-10.37.06-20.74.03-31.11.03-1.03,0-2.06,0-3.6,0Z" fill="#000" stroke-width="0"/>
        <path d="M497.49,136.96c-.71-4.56-.93-8.23-1.9-11.7-1.18-4.23-4.64-6.23-8.79-6.98-8.67-1.57-17.05-.13-25.3,2.52-2.33.75-4.63,1.58-6.92,2.44-3.59,1.35-7.07,1.43-10.07-1.25-3.17-2.82-3.95-6.59-3.21-10.59.68-3.71,2.69-6.71,6.25-8.21,15.65-6.62,31.89-9.04,48.62-5.59,17.58,3.62,27.09,14.5,28.09,32.62.72,13.06.42,26.18.49,39.28.02,4.52.14,9.08-.4,13.54-.98,7.95-5.96,11.82-14.01,11.5-7.37-.3-12.02-4.91-12.65-12.55-.05-.62-.08-1.25-.17-2.46-.59.91-.91,1.32-1.15,1.78-3.28,6.14-8.32,10.46-14.94,12.11-14.33,3.56-27.58,1.11-38.53-9.32-9.45-9-10.88-25.34-3.47-35.26,3.56-4.77,8.69-7.35,14.26-8.5,7.35-1.52,14.82-2.66,22.29-3.25,6.82-.54,13.72-.11,21.53-.11ZM496.6,151.23c-7.52.44-14.94.77-22.33,1.38-2.1.17-4.2,1.01-6.17,1.86-2.89,1.24-4.5,3.66-4.97,6.74-1,6.54,2.65,11.97,9.07,13.61,14.42,3.69,26.64-7.7,24.4-23.59Z" fill="#000" stroke-width="0"/>
        <path d="M882.58,158.04c4.58-11.26,8.95-22.04,13.34-32.82,2.66-6.53,5.24-13.11,8.08-19.56,2.99-6.79,7.66-9.48,15.02-9.07,7.46.42,12.26,6.47,10.67,13.8-.59,2.73-1.72,5.37-2.85,7.94-14.46,32.9-28.96,65.78-43.48,98.66-.8,1.8-1.66,3.6-2.71,5.26-4.01,6.4-12.18,8.81-19.04,5.69-4.32-1.96-6.63-5.41-6.32-10.07.19-2.94,1.02-5.95,2.15-8.68,2.74-6.6,5.89-13.03,8.69-19.61.47-1.1.49-2.76.01-3.86-9.87-22.9-19.87-45.73-29.75-68.63-1.03-2.38-1.82-5-2.07-7.57-.67-7.06,3.53-11.93,10.6-12.76,9.16-1.07,13.61,1.25,17.1,9.79,6.57,16.12,12.84,32.35,19.25,48.53.33.85.73,1.66,1.3,2.94Z" fill="#000" stroke-width="0"/>
        <path d="M777.54,119.87c-2.7,0-5.05.09-7.39-.02-8.84-.38-13.44-7.72-10.01-15.91,1.71-4.1,5.18-5.55,9.26-5.82,2.61-.17,5.24-.03,7.76-.03.68-4.52,1.03-8.75,1.99-12.84,3.87-16.61,15.86-24.16,31.4-27.37,4.87-1,9.88-1.4,14.85-1.84,4.6-.4,8.48,1.17,10.48,5.58,2.1,4.63,1.29,9.17-2.02,12.9-1.16,1.31-3.33,1.99-5.17,2.4-3.48.77-7.11.9-10.57,1.72-6.8,1.62-10.3,5.69-11.13,12.55-.26,2.12-.3,4.27-.47,6.82,2.07,0,3.83,0,5.59,0,2.83,0,5.66-.05,8.49.03,10.15.26,12.07,7.52,10.64,14.42-.79,3.85-3.4,6.37-7.32,6.92-3.25.46-6.57.4-9.86.5-2.34.07-4.69.01-7.44.01v3.48c0,18.11,0,36.21,0,54.32,0,1.88.06,3.8-.23,5.65-1.21,7.77-6.49,11.58-15.31,11.2-7.88-.34-13.02-4.95-13.34-12.52-.31-7.25-.18-14.52-.2-21.78-.02-12.35,0-24.71,0-37.06v-3.31Z" fill="#000" stroke-width="0"/>
        <path d="M575.7,113.72c0,13.57-.02,27.14.02,40.72,0,2.15.08,4.35.49,6.45,1.45,7.42,5.92,10.76,13.44,10.25,1.5-.1,3.01-.21,4.51-.32,2.46-.17,4.27,1,4.44,3.35.31,4.18.57,8.46.02,12.58-.53,4-3.69,6.43-7.53,7.16-7.66,1.46-15.39,1.61-22.97-.54-12.61-3.58-18.53-12.84-20.59-25.04-.73-4.34-.97-8.81-.99-13.22-.09-27.71-.05-55.42-.03-83.13,0-2.07.05-4.17.42-6.19,1.48-7.98,6.86-10.93,15.21-10.58,9.29.39,13.41,5.28,13.5,15.26.1,11.12.03,22.24.03,33.36,0,3.3,0,6.6,0,9.9Z" fill="#000" stroke-width="0"/>
        <path d="M718.43,145.16c0-10.46-.03-20.92.02-31.37,0-2.06.13-4.16.5-6.18,1.3-7.26,6.52-11.19,14.43-11.03,7.77.16,12.67,4.19,13.78,11.46.31,2.04.45,4.12.46,6.19.03,20.82.1,41.64-.06,62.47-.02,3.41-.68,6.94-1.71,10.2-1.21,3.84-4.32,6.22-8.25,6.95-10.53,1.95-18.55-1.96-18.94-13.63-.39-11.67-.09-23.36-.09-35.04-.05,0-.1,0-.15,0Z" fill="#000" stroke-width="0"/>
        <path d="M733.59,80.63c-5.58-.03-10.53-.76-14.15-5.09-6.61-7.89-2.73-20.84,7.22-23.02,4.01-.88,8.46-.83,12.52-.12,7.29,1.26,10.91,6.98,10.39,15.07-.47,7.37-5,12.12-12.4,12.95-1.31.15-2.63.16-3.58.22Z" fill="#000" stroke-width="0"/>
      </g>
      <g>
        <path d="M88.05,79.97c7.2-2.84,11.82-10.71,10.52-18-.53-3-1.52-5.92-2.31-8.88-.17-.63-.42-1.23-.57-1.87-.7-2.95-.12-3.73,2.91-3.73,16.92-.02,33.84,0,50.76,0,16.36,0,32.73.03,49.09-.03,3.52-.01,7.04-.39,10.56-.5,1.68-.05,2.51-.93,2.99-2.4,1.67-5.12,3.33-10.24,5.04-15.34,2.12-6.34,3.97-12.79,6.52-18.95,3.03-7.3,10.46-11.34,19.23-10.01,6.7,1.02,11.22,5.06,14.25,10.89,1.36,2.62,1.81,5.51,1.03,8.41-2.06,7.61-4.18,15.21-6.37,22.79-1.03,3.57-2.22,7.1-3.45,10.6-.56,1.58.03,2.48,1.31,3.19,2.27,1.26,4.56,2.48,6.8,3.8,10.24,6.02,18.73,14.02,25.8,23.49,6.09,8.17,10.58,17.18,13.49,27.02,2.54,8.57,3.61,17.27,3.4,26.13-.17,7.33-1.06,14.57-3.05,21.72-4.62,16.53-13.62,30.23-26.29,41.53-8.37,7.47-17.87,13.24-28.53,17.03-6.94,2.47-5.58,1.46-5.67,7.9-.08,6.14.03,12.27-.05,18.41-.03,2.22-.29,4.44-.53,6.65-.31,2.79-1.06,3.18-3.64,1.77-3.51-1.91-6.97-3.9-10.44-5.87-10.25-5.83-20.5-11.67-30.75-17.5-2.26-1.28-4.67-2.35-6.75-3.87-2.41-1.76-4.94-2.21-7.83-2.21-27.06.06-54.11.16-81.16-.05-9.73-.08-19.54-.47-29.02-2.93-10.05-2.61-19.39-6.92-27.9-12.97-9.34-6.64-17.35-14.62-23.56-24.22-4.96-7.67-8.75-15.93-11.05-24.84-2.17-8.44-3.12-17-2.75-25.66.48-11.32,2.89-22.31,7.59-32.63,5.8-12.73,14.41-23.29,25.42-31.96,4.91-3.87,10.01-7.39,15.59-10.17,1.87-.93,2.34-2.11,1.74-4.03-1.74-5.59-3.51-11.17-5.06-16.81-1.55-5.63-2.93-11.31-4.22-17.01-.98-4.3.51-8.06,3.17-11.4C49.81.53,56.98-1.26,65.26.95c5.69,1.52,9.15,5.72,11.07,10.94,3.13,8.54,5.85,17.24,8.7,25.89,2.44,7.41,4.94,14.8,7.22,22.26,2.1,6.84,1.21,13.21-3.73,18.71-.18.2-.33.45-.47.69-.04.07,0,.18,0,.53ZM146.88,184.2h0c8.09,0,16.17.07,24.26,0,16.44-.15,32.88-.36,49.32-.57,1.01-.01,2.06-.1,3.03-.35,11.26-2.88,20.52-8.88,27.63-18.08,4.43-5.73,7.34-12.19,9.12-19.23,2.4-9.5,1.8-18.8-1.51-27.94-2.91-8.02-7.76-14.79-14.17-20.36-6.33-5.49-13.4-9.84-21.88-10.94-6.06-.78-12.2-1.16-18.31-1.19-30.02-.12-60.05-.1-90.07-.03-11.79.03-23.58.33-35.38.52-.74.01-1.5.04-2.21.24-6.94,1.93-13.56,4.57-19.31,9.03-9.41,7.29-15.92,16.51-18.62,28.24-3.09,13.44-1.1,26.12,6.47,37.6,2.93,4.44,6.76,8.38,10.63,12.09,5.7,5.47,12.9,8.41,20.52,10.01,3.95.83,8.12.89,12.18.91,19.43.09,38.85.04,58.28.04Z" fill="url(#uuid-9b0dab93-18ff-429f-aace-7fe889de3925)" stroke-width="0"/>
        <path d="M188.58,135.02c.42-11.19,7.15-16.46,16.2-16.46,9.54,0,15.93,6.85,16.11,16.47.19,9.8-6.35,15.79-16.15,16.18-8.61.35-16.68-7.06-16.16-16.2Z" fill="url(#uuid-c9438b0b-77d1-4b9f-97b7-5887db1f845e)" stroke-width="0"/>
        <path d="M110.54,135.01c.44,9.53-7.77,16.41-16.13,16.26-8.45-.15-16.6-6.98-16.27-16.34.31-8.83,6.24-16.51,16.16-16.39,9.47.11,16.75,7.18,16.24,16.47Z" fill="url(#uuid-beb6a393-ec46-4b31-abd7-ff1acb9bf153)" stroke-width="0"/>
        <path d="M133.35,134.7c-.13-9.56,6.72-16.05,16.23-16.08,8.53-.03,16.2,6.34,16.3,16.51.1,9.59-9.63,16.22-16.26,16.27-6.82.06-17.3-7.1-16.27-16.7Z" fill="url(#uuid-fd3a4cdd-77e4-4876-a772-7f6de636edc1)" stroke-width="0"/>
      </g>
    </g>
  </g>
</svg>