<svg width="336" height="399" viewBox="0 0 336 399" fill="none" xmlns="http://www.w3.org/2000/svg">
<path d="M269.515 114.829C266.465 111.028 262.203 108.634 258.348 108.336C258.534 109.366 258.73 110.394 258.909 111.425C259.564 113.226 260.199 115.034 260.819 116.845C263.851 120.339 266.316 124.324 268.049 128.613C268.49 129.707 268.914 130.862 269.778 131.667C271.413 133.19 275.325 131.894 277.124 131.12C277.227 131.076 277.325 131.018 277.426 130.969C275.839 124.961 273.126 119.331 269.515 114.829Z" fill="#3C4BFF"/>
<path d="M269.779 131.665C268.915 130.86 268.491 129.705 268.05 128.611C266.317 124.322 263.852 120.337 260.82 116.844C262.14 120.699 263.369 124.583 264.394 128.529C265.236 131.771 265.919 135.11 266.414 138.487C267.985 149.22 267.604 160.352 264.027 170.118C268.255 168.989 272.188 165.148 274.189 161.84C279.528 153.008 280.186 141.413 277.427 130.968C277.326 131.017 277.228 131.075 277.125 131.119C275.326 131.892 271.414 133.188 269.779 131.665Z" fill="#261AD3"/>
<path d="M62.9497 131.666C63.8131 130.861 64.2368 129.706 64.679 128.612C66.4983 124.107 69.1165 119.929 72.362 116.313C73.1346 114.075 73.928 111.845 74.7477 109.624C74.8256 109.184 74.913 108.746 74.9922 108.307C70.9827 108.381 66.4245 110.824 63.2132 114.828C59.6014 119.33 56.8887 124.96 55.3018 130.968C55.4025 131.017 55.5006 131.075 55.6041 131.119C57.4024 131.893 61.3151 133.189 62.9497 131.666Z" fill="#3C4BFF"/>
<path d="M68.6001 128.529C69.2867 125.886 70.0754 123.277 70.9079 120.681C71.3762 119.22 71.8605 117.764 72.3617 116.312C69.1161 119.928 66.4979 124.107 64.6786 128.611C64.2366 129.705 63.8127 130.86 62.9493 131.665C61.3147 133.188 57.402 131.892 55.6036 131.119C55.5 131.074 55.402 131.016 55.3012 130.967C52.542 141.413 53.199 153.008 58.5394 161.84C60.5871 165.225 64.657 169.168 68.9964 170.193C64.2628 157.339 65.0751 142.1 68.6001 128.529Z" fill="#261AD3"/>
<path d="M236.051 318.559C229.629 323.475 223.1 328.253 216.462 332.873C213.395 335.009 210.199 337.226 208.374 340.485C206.509 343.817 206.323 347.881 207.08 351.621C207.518 353.79 208.251 355.874 209.101 357.919C212.842 358.365 216.734 356.995 219.77 354.702C223.232 352.089 225.726 348.4 227.795 344.588C231.733 337.334 234.916 328.013 236.051 318.559Z" fill="#3C4BFF"/>
<path d="M207.081 351.621C206.324 347.88 206.511 343.816 208.375 340.484C210.201 337.225 213.397 335.008 216.463 332.872C223.101 328.253 229.63 323.475 236.052 318.558C236.475 315.028 236.607 311.481 236.392 308.016C230.008 314.238 222.4 319.454 215.324 323.984C208.593 328.291 201.285 331.938 193.65 334.576C194.143 336.927 194.691 339.201 195.271 341.357C197.12 348.24 200.651 355.801 207.544 357.622C208.059 357.758 208.58 357.855 209.102 357.918C208.252 355.874 207.519 353.789 207.081 351.621Z" fill="#261AD3"/>
<path d="M130.066 340.485C128.242 337.226 125.045 335.009 121.978 332.873C115.34 328.253 108.812 323.476 102.39 318.559C103.524 328.013 106.707 337.334 110.645 344.588C112.714 348.4 115.208 352.089 118.67 354.702C121.707 356.995 125.598 358.365 129.339 357.919C130.189 355.874 130.923 353.79 131.361 351.621C132.117 347.881 131.931 343.817 130.066 340.485Z" fill="#3C4BFF"/>
<path d="M101.96 312.377C101.999 314.431 102.143 316.498 102.391 318.559C108.813 323.476 115.341 328.254 121.979 332.873C125.046 335.009 128.243 337.226 130.067 340.485C131.932 343.817 132.118 347.881 131.362 351.621C130.924 353.79 130.19 355.874 129.34 357.919C129.864 357.856 130.383 357.759 130.898 357.623C137.792 355.802 141.322 348.241 143.172 341.358C143.678 339.477 144.159 337.506 144.601 335.473C132.051 331.739 120.218 325.436 109.505 317.992C106.977 316.236 104.432 314.37 101.96 312.377Z" fill="#261AD3"/>
<path d="M278.146 266.044C280.04 266.815 282.174 268.402 284.176 268.612C291.549 269.382 294.576 262.758 295.164 256.338C295.117 256.124 295.073 255.91 295.017 255.698C293.821 251.175 291.114 247.251 288.075 243.648C287.986 244.517 287.876 245.385 287.731 246.247C286.467 253.718 283.053 260.54 278.146 266.044Z" fill="#EBF2E5"/>
<path d="M253.042 227.701C253.04 227.812 253.04 227.924 253.036 228.035C252.931 231.413 252.545 234.771 252.29 238.138C252.087 240.815 251.383 244.537 252.338 247.112C252.659 247.976 253.081 248.834 253.579 249.671C255.056 252.152 258.142 253.195 260.819 252.115C262.633 251.383 264.359 250.443 265.969 249.331C269.916 242.739 271.856 235.047 271.459 227.314C267.762 224.253 263.909 221.38 259.889 218.756C257.688 217.319 255.365 215.811 252.948 214.371C253.54 215.754 253.962 217.208 254.157 218.725C254.548 221.76 254.069 224.807 253.042 227.701Z" fill="#EBF2E5"/>
<path d="M272.043 232.51C271.438 240.32 268.489 247.792 263.583 253.899C262.838 254.826 262.037 255.705 261.211 256.56C260.996 256.799 260.797 257.052 260.573 257.282C261.188 257.76 261.8 258.203 262.401 258.608C264.424 259.967 266.569 261.109 268.778 262.138C270.342 262.868 272.144 262.887 273.721 262.183C277.094 260.679 280.336 258.864 283.54 257.01C285.706 252.631 287.049 247.86 287.495 242.959C287.051 242.444 286.601 241.935 286.148 241.432C281.795 236.594 277.103 232.052 272.114 227.865C272.18 229.412 272.162 230.962 272.043 232.51Z" fill="#EBF2E5"/>
<path d="M284.178 268.61C282.175 268.4 280.041 266.813 278.147 266.042C276.835 267.512 275.417 268.883 273.903 270.15C280.024 271.947 286.377 271.986 292.571 269.18C295.386 265.773 296.154 260.768 295.165 256.336C294.577 262.756 291.55 269.38 284.178 268.61Z" fill="#C6CAD6"/>
<path d="M264.353 265.944C267.23 267.625 270.219 269.005 273.27 269.962C277.621 266.397 281.094 261.956 283.541 257.012C280.337 258.867 277.094 260.681 273.721 262.186C272.144 262.889 270.342 262.87 268.778 262.141C266.57 261.112 264.424 259.969 262.402 258.61C261.8 258.206 261.188 257.762 260.574 257.284C260.797 257.054 260.996 256.801 261.212 256.562C259.806 258.021 258.286 259.365 256.673 260.591C259.023 262.628 261.676 264.381 264.353 265.944Z" fill="#C6CAD6"/>
<path d="M250.234 252.295C251.601 255.357 253.716 257.945 256.212 260.191C256.369 260.072 256.535 259.969 256.69 259.849C260.47 256.903 263.583 253.318 265.969 249.333C264.359 250.445 262.633 251.386 260.819 252.117C258.142 253.197 255.056 252.154 253.579 249.673C253.081 248.836 252.66 247.979 252.338 247.114C251.383 244.539 252.087 240.817 252.29 238.14C252.545 234.773 252.931 231.415 253.036 228.038C253.04 227.926 253.04 227.814 253.043 227.703C252.384 229.559 251.498 231.35 250.472 233.036C250.231 233.433 249.984 233.825 249.729 234.209C249.614 234.381 249.492 234.55 249.374 234.72C249.087 236.006 248.843 237.302 248.671 238.611C248.066 243.22 248.341 248.047 250.234 252.295Z" fill="#C6CAD6"/>
<path d="M256.213 260.19C253.716 257.944 251.601 255.356 250.235 252.293C248.342 248.045 248.066 243.219 248.672 238.609C248.843 237.3 249.087 236.005 249.375 234.719C247.754 237.068 245.851 239.237 243.715 241.133C244.634 244.036 245.513 246.947 246.341 249.866C246.397 250.061 246.453 250.255 246.508 250.448C246.977 252.116 247.432 253.785 247.871 255.457C248.512 257.903 249.114 260.372 249.631 262.854C249.722 262.911 249.809 262.974 249.9 263.03C250.209 263.224 250.523 263.412 250.835 263.602C251.124 263.453 251.41 263.3 251.694 263.142C253.271 262.273 254.776 261.275 256.213 260.19Z" fill="#A1A8C3"/>
<path d="M273.27 269.961C270.22 269.004 267.231 267.624 264.354 265.943C261.677 264.38 259.024 262.627 256.674 260.59C256.254 260.909 255.843 261.239 255.41 261.541C254.219 262.372 252.902 263.264 251.508 264.013C257.428 267.543 263.812 270.368 270.478 272.027C270.757 271.837 271.047 271.664 271.321 271.467C271.991 270.987 272.637 270.48 273.27 269.961Z" fill="#A1A8C3"/>
<path d="M273.902 270.149C273.044 270.868 272.161 271.558 271.243 272.204C273.394 272.709 275.572 273.098 277.773 273.342C282.201 273.833 287.02 273.661 290.619 271.036C291.358 270.497 292.002 269.868 292.57 269.18C286.376 271.986 280.023 271.947 273.902 270.149Z" fill="#A1A8C3"/>
<path d="M265.97 249.333C263.584 253.318 260.47 256.903 256.69 259.849C256.536 259.969 256.369 260.072 256.213 260.191C254.776 261.276 253.271 262.274 251.694 263.144C251.41 263.302 251.124 263.454 250.835 263.603C251.06 263.74 251.282 263.88 251.508 264.014C252.902 263.266 254.22 262.374 255.41 261.543C255.843 261.241 256.254 260.91 256.674 260.591C258.287 259.365 259.807 258.021 261.213 256.563C262.039 255.707 262.839 254.828 263.584 253.901C268.49 247.794 271.439 240.323 272.044 232.512C272.164 230.964 272.181 229.414 272.116 227.868C271.898 227.684 271.68 227.499 271.46 227.316C271.857 235.049 269.917 242.741 265.97 249.333Z" fill="#3C4BFF"/>
<path d="M273.271 269.961C272.637 270.48 271.991 270.987 271.322 271.468C271.047 271.665 270.757 271.837 270.479 272.027C270.733 272.09 270.988 272.145 271.244 272.205C272.161 271.559 273.044 270.869 273.903 270.151C275.416 268.884 276.835 267.513 278.146 266.043C283.054 260.539 286.468 253.717 287.731 246.247C287.876 245.384 287.987 244.516 288.076 243.648C287.881 243.419 287.692 243.186 287.496 242.961C287.05 247.861 285.707 252.633 283.541 257.012C281.095 261.955 277.622 266.396 273.271 269.961Z" fill="#3C4BFF"/>
<path d="M238.186 212.69C238.713 216.734 241.183 220.221 243.576 223.522C245.875 226.694 248.172 229.866 250.471 233.036C251.498 231.35 252.384 229.559 253.042 227.703C254.069 224.809 254.548 221.762 254.157 218.727C253.961 217.21 253.54 215.756 252.948 214.373C250.723 209.167 245.959 205.043 240.59 202.918C238.891 205.853 237.697 208.944 238.186 212.69Z" fill="#3C4BFF"/>
<path d="M231.033 207.591C234.989 216.609 238.559 225.72 241.682 234.914C242.384 236.983 243.057 239.057 243.714 241.134C245.851 239.238 247.753 237.069 249.374 234.72C249.492 234.549 249.613 234.38 249.729 234.208C249.984 233.824 250.231 233.432 250.471 233.035C248.172 229.865 245.875 226.693 243.576 223.522C241.183 220.22 238.713 216.733 238.186 212.689C237.696 208.943 238.891 205.852 240.589 202.917C240.4 202.842 240.213 202.76 240.022 202.69C236.146 201.271 231.991 200.573 227.895 200.626C228.968 202.941 230.014 205.263 231.033 207.591Z" fill="#1F2A50"/>
<path d="M51.662 270.723C53.6438 270.429 55.6949 268.773 57.5479 267.917C51.7507 261.895 47.9723 254.16 46.7416 245.904C43.8433 249.645 41.2898 253.693 40.2826 258.282C40.2362 258.494 40.2013 258.71 40.1631 258.925C41.0237 265.315 44.3284 271.805 51.662 270.723Z" fill="#EBF2E5"/>
<path d="M62.8117 233.721C63.4747 239.76 65.5864 245.567 68.9145 250.614C70.6048 251.69 72.41 252.584 74.2985 253.254C77.0187 254.221 80.0581 253.047 81.4279 250.505C81.8902 249.647 82.2745 248.773 82.5586 247.896C83.4044 245.282 82.5424 241.594 82.2266 238.928C81.8295 235.575 81.3015 232.235 81.053 228.865C81.0442 228.755 81.0396 228.642 81.0315 228.532C79.8826 225.684 79.2747 222.661 79.5373 219.611C79.669 218.088 80.0283 216.617 80.5597 215.211C78.207 216.752 75.9496 218.357 73.8127 219.886C69.8972 222.685 66.1613 225.726 62.5898 228.951C62.568 230.542 62.6378 232.135 62.8117 233.721Z" fill="#EBF2E5"/>
<path d="M51.7877 259.098C55.0723 260.818 58.3944 262.497 61.8355 263.86C63.4405 264.496 65.2403 264.4 66.7727 263.605C68.9346 262.484 71.0308 261.251 72.9925 259.807C73.5764 259.379 74.1702 258.909 74.7627 258.406C74.5397 258.195 74.3388 257.961 74.1231 257.743C66.4253 250.362 62.0727 240.075 62.0149 229.477C57.1972 233.879 52.6913 238.625 48.5388 243.655C48.0954 244.191 47.6546 244.734 47.2207 245.283C47.3631 246.379 47.5499 247.47 47.7864 248.552C48.6018 252.289 49.9744 255.827 51.7877 259.098Z" fill="#EBF2E5"/>
<path d="M74.7632 258.406C74.1707 258.908 73.5768 259.378 72.9929 259.807C71.0312 261.25 68.935 262.483 66.7732 263.604C65.2408 264.4 63.4409 264.496 61.8359 263.859C58.3948 262.496 55.0727 260.817 51.7881 259.097C54.4948 263.98 58.2161 268.24 62.6716 271.589C65.6585 270.505 68.5675 269.008 71.3549 267.217C73.9569 265.546 76.5286 263.686 78.786 261.559C77.1192 260.399 75.5633 259.121 74.1236 257.742C74.3392 257.96 74.5401 258.194 74.7632 258.406Z" fill="#C6CAD6"/>
<path d="M84.8818 252.982C86.5929 248.658 86.6628 243.824 85.8634 239.244C85.6363 237.943 85.3366 236.661 84.9953 235.388C84.8703 235.222 84.7413 235.059 84.619 234.892C84.347 234.519 84.085 234.137 83.8275 233.751C82.7304 232.109 81.769 230.358 81.0321 228.531C81.0401 228.642 81.0448 228.754 81.0536 228.865C81.3021 232.235 81.8303 235.575 82.2272 238.928C82.543 241.594 83.405 245.281 82.5591 247.896C82.275 248.773 81.8906 249.647 81.4285 250.505C80.0586 253.047 77.0193 254.221 74.2991 253.254C72.4107 252.584 70.6053 251.69 68.915 250.614C69.7925 251.943 70.7491 253.224 71.7924 254.439C73.9725 256.978 76.4878 259.225 79.2436 261.126C81.6437 258.777 83.6476 256.101 84.8818 252.982Z" fill="#C6CAD6"/>
<path d="M61.9235 271.85C60.3576 270.645 58.9029 269.325 57.5485 267.918C55.6957 268.774 53.6446 270.43 51.6626 270.724C44.3289 271.807 41.0243 265.316 40.1637 258.926C39.3643 263.396 40.3438 268.365 43.2997 271.648C49.5828 274.18 55.904 273.882 61.9235 271.85Z" fill="#C6CAD6"/>
<path d="M88.0348 245.135C88.5158 243.538 89.0142 241.945 89.5223 240.352C87.8609 238.845 86.3445 237.174 84.9956 235.387C85.3368 236.659 85.6366 237.942 85.8636 239.243C86.663 243.823 86.5932 248.657 84.8821 252.981C83.6479 256.099 81.6439 258.776 79.2441 261.125C79.427 261.25 79.6002 261.389 79.7856 261.512C80.8263 262.203 81.9824 262.953 83.2038 263.624C83.7521 260.884 84.4158 258.156 85.1239 255.457C85.57 253.757 86.0328 252.06 86.5099 250.367C86.565 250.172 86.6221 249.979 86.6779 249.785C87.1177 248.232 87.5678 246.683 88.0348 245.135Z" fill="#A1A8C3"/>
<path d="M79.0245 261.73C78.9431 261.675 78.8652 261.616 78.7853 261.561C76.5279 263.688 73.9562 265.548 71.3542 267.219C68.5668 269.01 65.6578 270.507 62.6709 271.591C63.5879 272.281 64.5265 272.944 65.5034 273.554C71.6096 271.755 77.4303 268.964 82.8398 265.556C82.9171 265.123 82.9964 264.69 83.0803 264.257C81.6251 263.477 80.2513 262.571 79.0245 261.73Z" fill="#A1A8C3"/>
<path d="M61.9235 271.848C55.9039 273.88 49.5827 274.179 43.2998 271.646C43.8971 272.311 44.5668 272.912 45.3274 273.42C49.0345 275.89 53.8576 275.857 58.2606 275.178C60.4359 274.844 62.5818 274.366 64.6967 273.776C64.5342 273.672 64.3641 273.583 64.2037 273.477C63.4209 272.959 62.6611 272.415 61.9235 271.848Z" fill="#A1A8C3"/>
<path d="M74.1227 257.744C75.5624 259.122 77.1184 260.4 78.7851 261.56C78.8651 261.616 78.943 261.675 79.0244 261.73C80.2512 262.57 81.625 263.477 83.0802 264.256C83.1204 264.046 83.1608 263.836 83.2031 263.626C81.9817 262.955 80.8256 262.204 79.7849 261.514C79.5995 261.39 79.4261 261.252 79.2435 261.126C76.4877 259.226 73.9724 256.979 71.7923 254.439C70.749 253.225 69.7923 251.944 68.915 250.614C65.5867 245.567 63.4752 239.76 62.8122 233.721C62.6381 232.135 62.5683 230.541 62.5905 228.951C62.3977 229.125 62.2069 229.301 62.0146 229.477C62.0723 240.075 66.4249 250.363 74.1227 257.744Z" fill="#3C4BFF"/>
<path d="M51.7876 259.098C49.9743 255.827 48.6019 252.289 47.7862 248.552C47.5497 247.47 47.3629 246.379 47.2205 245.283C47.058 245.488 46.9027 245.698 46.7422 245.905C47.9729 254.161 51.7513 261.896 57.5485 267.918C58.9029 269.325 60.3574 270.645 61.9235 271.849C62.6612 272.417 63.421 272.96 64.2037 273.478C64.3644 273.584 64.5343 273.673 64.6968 273.777C64.9656 273.703 65.2356 273.631 65.5036 273.552C64.5267 272.943 63.5882 272.28 62.6711 271.59C58.2156 268.241 54.4943 263.981 51.7876 259.098Z" fill="#3C4BFF"/>
<path d="M81.0323 228.531C81.7692 230.358 82.7306 232.11 83.8277 233.751C85.9896 230.486 88.1517 227.22 90.3136 223.955C92.5642 220.554 94.8839 216.966 95.2394 212.903C95.57 209.14 94.2438 206.102 92.4238 203.242C87.1487 205.592 82.5642 209.915 80.5607 215.211C80.0292 216.617 79.6698 218.088 79.5382 219.611C79.2754 222.66 79.8834 225.684 81.0323 228.531Z" fill="#3C4BFF"/>
<path d="M95.2389 212.903C94.8835 216.965 92.5636 220.553 90.313 223.954C88.1511 227.219 85.989 230.485 83.8271 233.751C84.0844 234.137 84.3466 234.519 84.6186 234.891C84.7409 235.059 84.8699 235.222 84.9949 235.388C86.344 237.175 87.8603 238.846 89.5217 240.353C93.3289 228.434 97.8906 216.65 103.094 205.023C103.784 203.481 104.487 201.943 105.2 200.406C101.043 200.506 96.8512 201.383 92.9808 202.99C92.7927 203.068 92.6093 203.158 92.4232 203.242C94.2432 206.101 95.5694 209.14 95.2389 212.903Z" fill="#1F2A50"/>
<path d="M213.791 256.467C214.287 262.566 213.488 268.696 211.59 274.475C213.163 273.085 214.693 271.652 216.167 270.173C220.854 265.471 225.094 260.362 229.042 255.031C223.988 255.882 218.878 256.36 213.791 256.467Z" fill="#EBF2E5"/>
<path d="M119.439 256.468C110.687 256.284 101.864 255.01 93.3867 252.6C101.835 263.47 112.173 272.876 123.839 280.187C123.241 278.939 122.738 277.648 122.302 276.332C119.935 270.044 118.889 263.253 119.439 256.468Z" fill="#EBF2E5"/>
<path d="M231.035 207.592C216.57 212.489 201.342 215.329 186.107 216.2C163.721 217.482 141.252 214.711 119.537 209.295C114.122 207.945 108.449 206.75 103.095 205.023C97.8916 216.65 93.33 228.434 89.5227 240.354C89.0148 241.946 88.5162 243.54 88.0352 245.137C89.5347 247.411 91.1155 249.632 92.7689 251.797C101.537 254.37 110.695 255.708 119.763 255.871C119.915 255.873 120.081 256.009 120.066 256.174C119.671 260.669 119.992 265.178 120.935 269.552C121.261 270.174 121.583 270.798 121.926 271.41C126.216 279.086 132.883 285.14 140.85 288.712C134.674 283.406 130.053 276.234 127.429 268.485C123.793 257.747 123.754 246.016 125.963 234.895C126.781 230.777 128.1 226.409 131.448 223.874C134.495 221.567 198.502 221.567 201.548 223.874C204.897 226.409 206.215 230.777 207.033 234.895C209.242 246.016 209.204 257.747 205.568 268.485C203.407 274.865 199.888 280.853 195.269 285.734C202.886 280.965 208.788 273.812 212.068 265.321C212.49 264.23 212.889 263.131 213.28 262.029C213.37 260.084 213.338 258.129 213.166 256.174C213.151 256.008 213.317 255.874 213.469 255.871C218.833 255.775 224.226 255.263 229.552 254.334C231.478 251.708 233.341 249.037 235.142 246.328C236.414 244.417 238.866 239.147 241.683 234.915C238.561 225.721 234.99 216.61 231.035 207.592Z" fill="#EBF2E5"/>
<path d="M195.269 285.732C192.112 289.066 188.449 291.889 184.333 293.948C173.763 299.236 159.262 299.25 148.663 293.948C145.839 292.535 143.233 290.757 140.85 288.71C132.883 285.138 126.216 279.084 121.926 271.408C121.583 270.796 121.261 270.172 120.935 269.55C122.371 276.209 125.262 282.552 129.372 288.035C135.263 295.891 143.58 301.655 153.075 304.223C158.107 305.585 163.204 305.881 168.392 305.83C173.639 305.777 178.88 304.864 183.811 303.068C200.858 296.856 212.451 279.895 213.28 262.027C212.889 263.129 212.49 264.228 212.068 265.319C208.788 273.81 202.886 280.963 195.269 285.732Z" fill="#C6CAD6"/>
<path d="M249.631 262.854C249.114 260.373 248.512 257.903 247.871 255.457C247.432 253.786 246.977 252.116 246.508 250.449C240.855 252.515 234.988 254.03 229.042 255.031C225.094 260.361 220.853 265.471 216.167 270.173C214.693 271.652 213.163 273.085 211.59 274.475C209.918 279.565 207.401 284.385 204.14 288.662C198.174 296.488 189.839 302.238 180.318 304.808C175.166 306.2 169.932 306.51 164.618 306.432C159.327 306.357 154.032 305.419 149.066 303.582C136.542 298.945 126.917 288.597 122.302 276.331C122.739 277.646 123.242 278.937 123.84 280.186C112.173 272.874 101.835 263.468 93.3871 252.598C91.0666 251.939 88.7695 251.2 86.5096 250.367C86.0327 252.061 85.5697 253.758 85.1236 255.457C84.4155 258.156 83.7516 260.885 83.2035 263.625C83.1612 263.835 83.121 264.045 83.0805 264.255C82.9966 264.688 82.9173 265.122 82.8401 265.555C81.4258 273.495 81.1452 281.507 83.86 289.199C83.9291 289.397 84.0144 289.585 84.087 289.782C86.0024 292.52 88.0843 295.145 90.3195 297.631C96.0038 303.948 102.646 309.393 109.9 313.816C118.102 318.818 127.102 322.522 136.461 324.695C161.221 330.444 187.915 325.794 210.203 313.577C226.343 304.729 240.19 292.074 251.189 277.279C251.282 272.486 250.629 267.649 249.631 262.854Z" fill="#C6CAD6"/>
<path d="M229.552 254.333C235.268 253.337 240.906 251.857 246.341 249.867C245.514 246.947 244.634 244.037 243.715 241.134C243.058 239.056 242.385 236.982 241.683 234.914C238.865 239.146 236.414 244.416 235.142 246.327C233.341 249.036 231.477 251.707 229.552 254.333Z" fill="#C6CAD6"/>
<path d="M88.0349 245.137C87.5679 246.684 87.1178 248.234 86.6777 249.786C88.6824 250.525 90.7148 251.194 92.7685 251.797C91.1152 249.631 89.5344 247.411 88.0349 245.137Z" fill="#C6CAD6"/>
<path d="M229.551 254.333C224.225 255.262 218.831 255.774 213.468 255.87C213.315 255.872 213.149 256.007 213.164 256.173C213.336 258.128 213.369 260.083 213.278 262.028C212.45 279.895 200.856 296.857 183.81 303.069C178.878 304.865 173.637 305.778 168.391 305.831C163.203 305.882 158.105 305.586 153.073 304.224C143.579 301.656 135.261 295.892 129.371 288.035C125.261 282.553 122.37 276.21 120.933 269.551C119.991 265.177 119.669 260.668 120.065 256.173C120.079 256.008 119.914 255.872 119.762 255.869C110.693 255.707 101.535 254.369 92.7676 251.796C90.7137 251.193 88.6815 250.524 86.6768 249.785C86.6211 249.979 86.564 250.173 86.5088 250.367C88.7689 251.2 91.0658 251.939 93.3862 252.598C101.864 255.009 110.686 256.283 119.438 256.467C118.888 263.252 119.935 270.043 122.301 276.331C126.917 288.597 136.541 298.946 149.065 303.582C154.031 305.419 159.326 306.357 164.617 306.432C169.931 306.51 175.165 306.201 180.317 304.809C189.838 302.238 198.173 296.488 204.14 288.663C207.401 284.385 209.917 279.566 211.589 274.475C213.487 268.696 214.286 262.566 213.79 256.467C218.877 256.36 223.987 255.882 229.042 255.031C234.987 254.03 240.854 252.515 246.507 250.449C246.452 250.256 246.396 250.061 246.34 249.867C240.905 251.857 235.267 253.336 229.551 254.333Z" fill="#3C4BFF"/>
<path d="M103.094 205.022C108.448 206.749 114.121 207.944 119.536 209.294C141.251 214.71 163.719 217.481 186.106 216.199C201.34 215.329 216.569 212.488 231.034 207.591C230.014 205.263 228.968 202.941 227.895 200.626C227.803 200.426 227.712 200.226 227.62 200.025C226.886 200.269 226.154 200.509 225.422 200.742C225.231 200.803 225.04 200.864 224.849 200.925C186.885 212.938 146.109 212.938 108.145 200.925C107.954 200.864 107.763 200.803 107.572 200.742C106.84 200.509 106.107 200.269 105.374 200.025C105.316 200.152 105.259 200.279 105.2 200.406C104.487 201.943 103.784 203.481 103.094 205.022Z" fill="#A1A8C3"/>
<path d="M210.203 313.577C187.915 325.794 161.221 330.444 136.461 324.695C127.102 322.522 118.102 318.818 109.9 313.817C102.646 309.393 96.0036 303.948 90.3194 297.631C88.0842 295.146 86.0022 292.52 84.0869 289.782C87.4844 298.905 94.3578 306.248 101.959 312.376C104.431 314.369 106.977 316.236 109.505 317.991C120.218 325.435 132.051 331.738 144.6 335.472C151.353 337.481 158.31 338.758 165.42 339.04C175.025 339.42 184.568 337.715 193.65 334.576C201.284 331.938 208.592 328.291 215.323 323.984C222.4 319.454 230.007 314.238 236.391 308.016C241.961 302.584 246.599 296.386 249.135 289.2C250.514 285.292 251.111 281.301 251.189 277.279C240.19 292.075 226.343 304.729 210.203 313.577Z" fill="#A1A8C3"/>
<path d="M264.394 128.528C263.369 124.582 262.14 120.698 260.82 116.843C260.199 115.031 259.564 113.223 258.909 111.423C258.73 110.392 258.534 109.364 258.348 108.334C255.156 90.6485 250.836 73.166 245.39 56.039C243.815 51.0867 241.925 45.8479 237.742 42.7626C233.194 39.4074 226.775 39.4464 221.579 41.67C216.382 43.8949 212.221 47.9949 208.613 52.3454C204.123 57.7589 200.322 63.6412 196.958 69.7989C176.76 66.8145 155.923 65.9152 135.61 68.4C132.44 62.7508 128.88 57.3473 124.731 52.3454C121.123 47.9949 116.962 43.8951 111.766 41.67C106.569 39.4464 100.151 39.4075 95.6022 42.7626C91.4195 45.8478 89.5295 51.0867 87.9548 56.039C82.511 73.1573 78.1844 90.6289 74.9912 108.305C74.912 108.745 74.8246 109.183 74.7467 109.622C73.927 111.844 73.1336 114.074 72.361 116.312C71.8599 117.763 71.3755 119.219 70.9072 120.68C70.9616 120.744 71.0168 120.809 71.0711 120.873C76.7319 127.512 83.0451 133.569 89.8607 138.999C90.198 137.098 90.6245 135.221 91.1298 133.388C91.6465 131.512 92.2746 129.725 92.9727 127.994C98.7618 113.655 110.625 104.229 126.346 98.364C152.198 88.7209 181.007 88.7994 206.648 98.364C208.066 98.8932 209.441 99.4621 210.796 100.05C226.261 106.765 237.447 117.366 241.864 133.388C242.946 137.31 243.675 141.435 243.905 145.556C244.711 147.814 245.268 150.141 245.513 152.485C252.873 148.438 259.879 143.754 266.413 138.486C265.919 135.109 265.236 131.77 264.394 128.528Z" fill="#EBF2E5"/>
<path d="M107.572 200.742C107.762 200.803 107.953 200.864 108.144 200.924C146.108 212.938 186.885 212.938 224.848 200.924C225.039 200.864 225.231 200.803 225.421 200.742C226.154 200.509 226.886 200.269 227.62 200.025C238.224 196.491 248.761 191.79 256.151 183.473C259.673 179.509 262.243 174.982 264.026 170.118C267.603 160.353 267.984 149.22 266.413 138.488C259.879 143.755 252.873 148.439 245.512 152.487C245.926 156.427 245.489 160.4 243.977 164.109C236.481 182.496 215.184 187.282 197.702 190.725C173.718 195.448 147.001 194.177 123.328 188.488C105.998 184.323 89.6125 174.215 89.5695 155.248C88.688 149.967 88.9044 144.392 89.8603 139C83.0446 133.57 76.7315 127.513 71.0707 120.874C71.0163 120.811 70.9611 120.745 70.9068 120.682C70.0744 123.277 69.2856 125.887 68.599 128.53C65.074 142.101 64.2617 157.339 68.9955 170.193C70.7771 175.028 73.3382 179.529 76.8417 183.473C84.2318 191.79 94.7674 196.491 105.373 200.025C106.107 200.269 106.84 200.509 107.572 200.742Z" fill="#C6CAD6"/>
<path d="M235.844 171.193C230.075 177.311 221.68 180.585 213.403 183.075C213.263 183.117 213.124 183.159 212.985 183.2C183.891 191.874 148.936 191.835 120.01 183.2C119.871 183.159 119.731 183.117 119.592 183.075C111.315 180.585 102.919 177.311 97.1498 171.193C92.9112 166.698 90.5558 161.157 89.5703 155.248C89.6133 174.214 105.998 184.323 123.329 188.487C147.002 194.177 173.719 195.447 197.703 190.724C215.184 187.282 236.482 182.496 243.978 164.108C245.49 160.399 245.927 156.426 245.513 152.486C245.269 150.142 244.711 147.814 243.906 145.557C244.428 154.937 242.349 164.296 235.844 171.193Z" fill="#3C4BFF"/>
<path d="M210.91 76.4911C214.912 78.8369 219.353 80.4661 223.472 82.7159C226.925 84.601 230.359 86.4921 233.744 88.49C236.599 90.1744 243.148 95.3683 243.148 95.3683C243.148 95.3683 237.219 86.5291 233.602 82.5252C230.982 79.6247 228.093 77.0491 224.842 75.1862C217.058 70.725 197.74 69.9883 197.74 69.9883C197.74 69.9883 202.538 72.0728 204.03 72.8014C206.368 73.9439 208.664 75.1748 210.91 76.4911Z" fill="#3C4BFF" fill-opacity="0.35"/>
<path d="M109.076 81.6377C113.195 79.388 117.636 77.7586 121.638 75.4136C123.884 74.0974 126.18 72.8664 128.519 71.7233C130.011 70.9954 134.808 68.9102 134.808 68.9102C134.808 68.9102 115.49 69.6468 107.706 74.1087C104.455 75.971 101.566 78.5471 98.9457 81.4478C95.3293 85.451 89.4004 94.2909 89.4004 94.2909C89.4004 94.2909 95.9486 89.0962 98.8033 87.4119C102.189 85.4147 105.623 83.5229 109.076 81.6377Z" fill="#3C4BFF" fill-opacity="0.35"/>
<path d="M229.969 115.382C224.516 109.233 217.788 104.435 210.796 100.051C209.441 99.4631 208.066 98.8944 206.649 98.365C181.008 88.8005 152.198 88.7219 126.346 98.365C110.625 104.23 98.7622 113.656 92.9731 127.995C92.3475 132.124 92.0748 136.289 92.2932 140.47C92.875 151.629 97.358 162.981 106.144 169.891C113.836 175.939 123.862 178.011 133.545 179.424C157.175 182.872 181.647 183.409 204.585 176.774C212.63 174.448 220.535 171.189 227.098 165.99C233.661 160.79 238.807 153.471 240.179 145.213C241.959 134.493 237.18 123.513 229.969 115.382Z" fill="#3C4BFF"/>
<path d="M119.592 183.076C119.731 183.119 119.871 183.16 120.01 183.202C148.936 191.837 183.891 191.876 212.985 183.202C213.124 183.16 213.263 183.119 213.403 183.076C221.68 180.587 230.075 177.312 235.844 171.194C242.349 164.297 244.428 154.939 243.905 145.558C243.676 141.438 242.946 137.312 241.864 133.39C237.447 117.368 226.261 106.767 210.796 100.053C217.787 104.437 224.516 109.234 229.969 115.383C237.18 123.515 241.959 134.494 240.179 145.215C238.807 153.473 233.661 160.791 227.098 165.991C220.535 171.19 212.63 174.449 204.585 176.776C181.647 183.41 157.175 182.874 133.545 179.426C123.861 178.013 113.836 175.941 106.144 169.892C97.3581 162.983 92.8751 151.631 92.2932 140.471C92.075 136.291 92.3476 132.126 92.9731 127.997C92.275 129.728 91.6469 131.515 91.1302 133.39C90.6249 135.223 90.1984 137.101 89.8612 139.001C88.9051 144.393 88.6889 149.968 89.5703 155.249C90.556 161.159 92.9113 166.7 97.1498 171.195C102.919 177.312 111.315 180.587 119.592 183.076Z" fill="#261AD3"/>
<path d="M219.974 115.8C215.303 110.618 209.114 107.107 202.573 104.835C189.464 100.281 174.989 100.167 161.304 101.31C154.424 101.885 147.59 103 140.871 104.585C122.439 108.93 100.733 118.845 97.0342 139.626C95.6663 147.313 98.9958 156.442 106.373 159.005C110.691 160.504 115.43 159.535 119.894 158.553C120.784 158.357 121.673 158.162 122.562 157.966C118.417 156.944 114.597 154.656 111.969 151.292C106.882 144.782 107.37 136.138 111.148 129.358C115.185 122.113 122.978 116.997 131.741 118.887C143.95 121.52 151.833 139.607 144.073 149.945C142.895 151.514 141.504 152.923 139.962 154.139C154.158 151.016 168.353 147.894 182.547 144.772C183.845 144.486 185.143 144.201 186.44 143.915C185.463 139.009 186.514 133.787 188.981 129.358C193.018 122.113 200.811 116.997 209.574 118.887C216.206 120.317 221.553 126.308 223.819 133.138C230.675 126.568 224.546 120.872 219.974 115.8Z" fill="#3C4BFF"/>
<path d="M144.073 149.944C151.834 139.605 143.95 121.519 131.741 118.885C122.978 116.996 115.185 122.112 111.149 129.357C107.37 136.136 106.883 144.781 111.969 151.291C114.597 154.655 118.417 156.942 122.562 157.965C125.906 158.789 129.46 158.793 132.775 157.861C135.401 157.122 137.83 155.82 139.963 154.137C141.504 152.921 142.896 151.512 144.073 149.944Z" fill="#3CDDFF"/>
<path d="M209.574 118.885C200.811 116.996 193.019 122.112 188.982 129.357C186.514 133.786 185.463 139.008 186.44 143.914C186.959 146.517 188.038 149.033 189.802 151.291C194.551 157.369 203.182 159.951 210.609 157.861C215.131 156.588 219.099 153.684 221.907 149.944C225.452 145.22 225.726 138.882 223.819 133.137C221.554 126.306 216.206 120.316 209.574 118.885Z" fill="#3CDDFF"/>
<path d="M207.033 234.894C206.214 230.776 204.896 226.408 201.548 223.873C198.501 221.566 134.494 221.566 131.447 223.873C128.099 226.408 126.78 230.776 125.962 234.894C123.754 246.014 123.792 257.746 127.429 268.484C130.052 276.232 134.674 283.405 140.849 288.711C143.232 290.758 145.839 292.535 148.662 293.948C159.261 299.25 173.762 299.237 184.333 293.948C188.448 291.889 192.112 289.067 195.268 285.733C199.887 280.852 203.407 274.864 205.567 268.484C209.203 257.746 209.242 246.014 207.033 234.894Z" fill="#3C4BFF"/>
<path d="M200.01 226.187C199.913 226.111 199.832 226.021 199.732 225.947C196.843 223.83 136.151 223.83 133.262 225.947C130.086 228.276 128.837 232.285 128.061 236.066C126.19 245.182 126.028 254.746 128.468 263.708C135.782 271.427 146.184 276.433 157.007 277.064C170.938 277.877 185.098 271.437 193.343 260.539C200.699 250.818 203.122 237.828 200.01 226.187Z" fill="#0AD4FF"/>
<path d="M138.409 260.167C145.42 262.914 153.247 259.547 159.998 256.245C167.983 252.34 175.969 248.434 183.955 244.529C187.659 242.718 191.855 240.536 192.758 236.236C193.469 232.845 191.825 230.663 188.434 229.924C183.543 228.858 177.734 229.337 172.736 229.268C167.213 229.192 161.69 229.257 156.171 229.466C149.373 229.723 142.173 230.335 136.685 234.226C132.292 237.342 129.459 242.551 129.684 247.818C129.909 253.083 133.362 258.19 138.409 260.167Z" fill="#8DD3F6"/>
<path d="M204.934 236.067C204.183 232.405 202.97 228.543 200.01 226.188C203.122 237.829 200.699 250.819 193.343 260.54C185.098 271.438 170.938 277.878 157.007 277.065C146.185 276.435 135.782 271.429 128.468 263.71C128.76 264.783 129.082 265.851 129.451 266.906C132.899 276.763 139.969 285.626 149.585 290.284C159.635 295.151 173.387 295.138 183.409 290.284C193.025 285.625 200.096 276.763 203.543 266.906C206.992 257.048 207.028 246.276 204.934 236.067Z" fill="#261AD3"/>
</svg>
