<svg width="30" height="30" viewBox="0 0 30 30" fill="none" xmlns="http://www.w3.org/2000/svg">
<rect x="29.6447" y="0.35533" width="29.2893" height="29.2893" rx="14.6447" transform="rotate(90 29.6447 0.35533)" stroke="#333333" stroke-width="0.71066"/>
<path d="M20.7826 11.9082C20.6353 11.3539 20.2016 10.9174 19.6509 10.7692C18.6527 10.5 14.65 10.5 14.65 10.5C14.65 10.5 10.6474 10.5 9.64913 10.7692C9.09841 10.9174 8.66468 11.3539 8.51747 11.9082C8.25 12.9129 8.25 15.0091 8.25 15.0091C8.25 15.0091 8.25 17.1053 8.51747 18.11C8.66468 18.6643 9.09841 19.0826 9.64913 19.2308C10.6474 19.5 14.65 19.5 14.65 19.5C14.65 19.5 18.6527 19.5 19.6509 19.2308C20.2016 19.0826 20.6353 18.6643 20.7826 18.11C21.05 17.1053 21.05 15.0091 21.05 15.0091C21.05 15.0091 21.05 12.9129 20.7826 11.9082ZM13.3409 16.9123V13.1059L16.6864 15.0091L13.3409 16.9123Z" fill="white"/>
</svg>
